<svg id="svg3123" xmlns="http://www.w3.org/2000/svg" viewBox="0 0 589 589">

 <g id="g3950" transform="translate(25.161083,-0.37094082)">

  <g id="g3923" transform="translate(0,116)">

   <path id="path3925" d="m453.01,231.01c0,65.905-69.353,119.33-154.91,119.33-85.552,0-154.91-53.426-154.91-119.33,0-65.905,69.353-119.33,154.91-119.33,85.552,0,154.91,53.426,154.91,119.33z" transform="matrix(1.6327995,0,0,1.900373,-217.40261,-198.1283)" fill="#006116"/>

   <path id="path3927" d="m453.01,231.01c0,65.905-69.353,119.33-154.91,119.33-85.552,0-154.91-53.426-154.91-119.33,0-65.905,69.353-119.33,154.91-119.33,85.552,0,154.91,53.426,154.91,119.33z" transform="matrix(1.6327995,0,0,1.900373,-217.40261,-206.1283)" fill="#2e8b43"/>

   <path id="path3929" d="m453.01,231.01c0,65.905-69.353,119.33-154.91,119.33-85.552,0-154.91-53.426-154.91-119.33,0-65.905,69.353-119.33,154.91-119.33,85.552,0,154.91,53.426,154.91,119.33z" transform="matrix(1.190939,0,0,1.3418824,-85.682921,-77.113133)" fill="#00711a"/>

  </g>

  <g id="g3918">

   <path id="path3916" d="m453.01,231.01c0,65.905-69.353,119.33-154.91,119.33-85.552,0-154.91-53.426-154.91-119.33,0-65.905,69.353-119.33,154.91-119.33,85.552,0,154.91,53.426,154.91,119.33z" transform="matrix(1.6327995,0,0,1.900373,-217.40261,-198.1283)" fill="#006116"/>

   <path id="path3903" d="m453.01,231.01c0,65.905-69.353,119.33-154.91,119.33-85.552,0-154.91-53.426-154.91-119.33,0-65.905,69.353-119.33,154.91-119.33,85.552,0,154.91,53.426,154.91,119.33z" transform="matrix(1.6327995,0,0,1.900373,-217.40261,-206.1283)" fill="#2e8b43"/>

   <path id="path3133" d="m453.01,231.01c0,65.905-69.353,119.33-154.91,119.33-85.552,0-154.91-53.426-154.91-119.33,0-65.905,69.353-119.33,154.91-119.33,85.552,0,154.91,53.426,154.91,119.33z" transform="matrix(1.190939,0,0,1.3418824,-85.682921,-77.113133)" fill="#00711a"/>

  </g>

 </g>

</svg>

